<?xml version="1.0" encoding="UTF-8" standalone="no"?>
<svg
   width="16"
   height="12"
   viewBox="0 0 16 12"
   fill="none"
   version="1.1"
   id="svg20"
   sodipodi:docname="list.svg"
   inkscape:version="1.2.2 (732a01da63, 2022-12-09)"
   xmlns:inkscape="http://www.inkscape.org/namespaces/inkscape"
   xmlns:sodipodi="http://sodipodi.sourceforge.net/DTD/sodipodi-0.dtd"
   xmlns="http://www.w3.org/2000/svg"
   xmlns:svg="http://www.w3.org/2000/svg">
  <defs
     id="defs24" />
  <sodipodi:namedview
     id="namedview22"
     pagecolor="#505050"
     bordercolor="#eeeeee"
     borderopacity="1"
     inkscape:showpageshadow="0"
     inkscape:pageopacity="0"
     inkscape:pagecheckerboard="0"
     inkscape:deskcolor="#505050"
     showgrid="false"
     inkscape:zoom="32"
     inkscape:cx="12.25"
     inkscape:cy="3.765625"
     inkscape:window-width="1920"
     inkscape:window-height="991"
     inkscape:window-x="-9"
     inkscape:window-y="-9"
     inkscape:window-maximized="1"
     inkscape:current-layer="svg20" />
  <path
     fill-rule="evenodd"
     clip-rule="evenodd"
     d="m 2.5,8.5462478 c 0,-0.2761 0.22386,-0.5 0.5,-0.5 h 10 c 0.2761,0 0.5,0.2239 0.5,0.5 0,0.2761 -0.2239,0.5 -0.5,0.5 H 3 c -0.27614,0 -0.5,-0.2239 -0.5,-0.5 z"
     fill="#000000"
     id="path14" />
  <path
     fill-rule="evenodd"
     clip-rule="evenodd"
     d="m 2.5,5.9494127 c 0,-0.27614 0.22386,-0.5 0.5,-0.5 h 10 c 0.2761,0 0.5,0.22386 0.5,0.5 0,0.27614 -0.2239,0.5 -0.5,0.5 H 3 c -0.27614,0 -0.5,-0.22386 -0.5,-0.5 z"
     fill="#000000"
     id="path16" />
  <path
     fill-rule="evenodd"
     clip-rule="evenodd"
     d="m 2.5,3.4520146 c 0,-0.27614 0.22386,-0.5 0.5,-0.5 h 10 c 0.2761,0 0.5,0.22386 0.5,0.5 0,0.27614 -0.2239,0.5 -0.5,0.5 H 3 c -0.27614,0 -0.5,-0.22386 -0.5,-0.5 z"
     fill="#000000"
     id="path18" />
</svg>
